Coordinates
version=1
nRows=12
nColumns=46
inDegrees=yes

Units are S.I. units (second, meters, Newtons, ...)
Angles are in degrees.

endheader
time	pelvis_tilt	pelvis_list	pelvis_rotation	pelvis_tx	pelvis_ty	pelvis_tz	bb_angle	bb_tx	bb_ty	bb_tz	hip_flexion_r	hip_adduction_r	hip_rotation_r	knee_angle_r	knee_angle_r_beta	ankle_angle_r	subtalar_angle_r	mtp_angle_r	crank_angle_r	hip_flexion_l	hip_adduction_l	hip_rotation_l	knee_angle_l	knee_angle_l_beta	ankle_angle_l	subtalar_angle_l	mtp_angle_l	crank_angle_l	lumbar_extension	lumbar_bending	lumbar_rotation	arm_flex_r	arm_add_r	arm_rot_r	elbow_flex_r	pro_sup_r	wrist_flex_r	wrist_dev_r	arm_flex_l	arm_add_l	arm_rot_l	elbow_flex_l	pro_sup_l	wrist_flex_l	wrist_dev_l
      2.50000000	    -29.72154402	     -9.48355331	    -11.81832329	      0.40928566	      1.22017716	     -0.28358965	      0.00000000	      0.50000000	      0.00000000	      0.25000000	     72.31356865	     11.09198748	     -2.47261311	     88.90975957	      1.55176804	     15.83447768	     -9.92443221	      0.00000000	      0.00000000	     26.43287269	    -20.75410109	    -16.21499248	     21.37850546	      0.37312531	    -31.30548273	      8.10100689	      0.00000000	      0.00000000	    -55.82799400	      2.71092893	     13.21913988	     51.53806822	    -20.72986309	     32.52975290	     74.82538107	     50.43927863	      0.00000000	      0.00000000	     44.98917237	    -16.03063184	     20.81817626	     61.85033982	     52.17985969	      0.00000000	      0.00000000
      2.50500000	    -30.12911795	     -9.30826597	    -11.95629728	      0.40859717	      1.22144825	     -0.28357850	      0.00000000	      0.50000000	      0.00000000	      0.25000000	     72.66008276	     11.42790974	     -2.11390659	     87.88848487	      1.53394344	     15.06040563	    -10.56570360	      0.00000000	      0.00000000	     27.03855196	    -20.56058224	    -15.22348658	     21.99383794	      0.38386489	    -31.37720371	      7.11122565	      0.00000000	      0.00000000	    -55.77693452	      2.57874512	     13.20011671	     50.97283640	    -20.28962009	     31.06609583	     75.86874313	     50.00162929	      0.00000000	      0.00000000	     44.89976923	    -15.91898906	     20.22821239	     62.44678978	     51.46808522	      0.00000000	      0.00000000
      2.51000000	    -30.30327753	     -9.02387731	    -12.14099707	      0.40805290	      1.22297945	     -0.28337824	      0.00000000	      0.50000000	      0.00000000	      0.25000000	     72.75011505	     11.78959142	     -1.58728987	     86.88559247	      1.51643966	     14.19736813	    -11.39342812	      0.00000000	      0.00000000	     27.33336309	    -20.29403500	    -14.58034698	     22.55875095	      0.39372448	    -31.45857538	      6.42626819	      0.00000000	      0.00000000	    -55.97722978	      2.24929589	     13.23343349	     50.52193090	    -20.09890291	     29.91360245	     77.01292965	     49.67619502	      0.00000000	      0.00000000	     45.09536645	    -15.81493560	     19.97573414	     62.85480336	     50.89425471	      0.00000000	      0.00000000
      2.51500000	    -30.47895167	     -8.76676700	    -12.30823539	      0.40756406	      1.22436735	     -0.28315528	      0.00000000	      0.50000000	      0.00000000	      0.25000000	     72.81642882	     12.11505512	     -1.09276764	     85.88417473	      1.49896162	     13.48178555	    -11.86273649	      0.00000000	      0.00000000	     27.66205248	    -20.06733737	    -13.92836685	     23.17074937	      0.40440587	    -31.51702449	      5.86134808	      0.00000000	      0.00000000	    -56.13542596	      1.82224821	     14.05597446	     49.31119360	    -20.79859401	     27.93729480	     79.21416276	     49.41795040	      0.00000000	      0.00000000	     46.10212928	    -15.20415311	     21.24648518	     62.27687717	     50.49714320	      0.00000000	      0.00000000
      2.52000000	    -30.61199624	     -8.51146464	    -12.37437644	      0.40711695	      1.22571065	     -0.28310985	      0.00000000	      0.50000000	      0.00000000	      0.25000000	     72.80708456	     12.31682783	     -0.64868480	     84.86021978	      1.48109024	     12.71914891	    -12.41382564	      0.00000000	      0.00000000	     27.99592522	    -19.76860035	    -13.16243278	     23.81901417	      0.41572022	    -31.54898823	      5.10703140	      0.00000000	      0.00000000	    -56.31967174	      1.59993026	     13.81480885	     49.09659551	    -20.21090260	     27.02349304	     79.76019033	     49.01207250	      0.00000000	      0.00000000	     46.00912827	    -15.18376863	     20.51560654	     62.92210130	     49.85558132	      0.00000000	      0.00000000
      2.52500000	    -30.66065731	     -8.23817772	    -12.43622583	      0.40675334	      1.22707166	     -0.28317329	      0.00000000	      0.50000000	      0.00000000	      0.25000000	     72.66333098	     12.49726280	     -0.14265535	     83.79179156	      1.46244265	     11.92822596	    -12.98289122	      0.00000000	      0.00000000	     28.24716084	    -19.45330583	    -12.51278959	     24.54894358	      0.42845989	    -31.39318192	      4.51429807	      0.00000000	      0.00000000	    -56.58213314	      1.40902053	     13.62158245	     48.92418784	    -19.79110372	     26.21619819	     80.37285850	     48.72188519	      0.00000000	      0.00000000	     45.97784223	    -15.24434619	     20.11877752	     63.51177010	     49.37337957	      0.00000000	      0.00000000
      2.53000000	    -30.67782758	     -8.01335947	    -12.37250104	      0.40634197	      1.22829275	     -0.28319321	      0.00000000	      0.50000000	      0.00000000	      0.25000000	     72.44530333	     12.56187294	      0.25368022	     82.68409495	      1.44310970	     11.29583337	    -13.44264515	      0.00000000	      0.00000000	     28.57375703	    -19.13785717	    -11.75476341	     25.42831407	      0.44380780	    -31.11594467	      3.76446160	      0.00000000	      0.00000000	    -56.85601040	      1.31771804	     13.45050980	     48.72129582	    -19.34800525	     25.36666507	     80.93568883	     48.44631548	      0.00000000	      0.00000000	     46.02058685	    -15.33981964	     19.91207230	     64.00752224	     48.96462861	      0.00000000	      0.00000000
      2.53500000	    -30.72510454	     -7.74783947	    -12.38862262	      0.40610107	      1.22927392	     -0.28300997	      0.00000000	      0.50000000	      0.00000000	      0.25000000	     72.21294543	     12.68502000	      0.69746520	     81.55045168	      1.42332389	     10.64823912	    -13.93705609	      0.00000000	      0.00000000	     28.92374010	    -18.86074973	    -11.22788228	     26.41821357	      0.46108481	    -30.62171828	      3.13571364	      0.00000000	      0.00000000	    -57.06408156	      1.05247890	     13.39373561	     48.42655573	    -19.14766961	     24.59135521	     81.61554539	     48.22872385	      0.00000000	      0.00000000	     46.27785327	    -15.45775840	     20.29829991	     64.28324306	     48.61183237	      0.00000000	      0.00000000
      2.54000000	    -30.66376624	     -7.50796720	    -12.18987983	      0.40571746	      1.23024635	     -0.28306761	      0.00000000	      0.50000000	      0.00000000	      0.25000000	     71.83284525	     12.59027550	      1.06437230	     80.39271352	      1.40311755	     10.07576785	    -14.36880318	      0.00000000	      0.00000000	     29.30592992	    -18.48611695	    -10.52952326	     27.49472785	      0.47987353	    -30.30451975	      2.32909609	      0.00000000	      0.00000000	    -57.35032081	      1.06431360	     13.08410243	     48.22270439	    -18.38674071	     23.49709131	     82.04769557	     48.01729487	      0.00000000	      0.00000000	     46.14128442	    -15.44768659	     19.57644971	     64.89248163	     48.25442474	      0.00000000	      0.00000000
      2.54500000	    -30.63418855	     -7.17722762	    -12.10754743	      0.40545000	      1.23094098	     -0.28295707	      0.00000000	      0.50000000	      0.00000000	      0.25000000	     71.47526960	     12.50555246	      1.47861348	     79.25205313	      1.38320927	      9.48727404	    -14.76597478	      0.00000000	      0.00000000	     29.72466175	    -18.14727052	    -10.18984961	     28.69422661	      0.50080873	    -29.80030535	      1.72155471	      0.00000000	      0.00000000	    -57.59626826	      0.92261768	     12.83480241	     48.15792096	    -17.98609260	     22.96197392	     82.43495043	     47.97568447	      0.00000000	      0.00000000	     46.29777695	    -15.54255331	     19.52894940	     65.05590332	     48.16653808	      0.00000000	      0.00000000
      2.55000000	    -30.61655182	     -6.84186505	    -11.88365118	      0.40514940	      1.23144072	     -0.28275295	      0.00000000	      0.50000000	      0.00000000	      0.25000000	     71.05957530	     12.31655270	      1.89059367	     78.05140197	      1.36225395	      9.07619353	    -15.14278473	      0.00000000	      0.00000000	     30.21544227	    -17.77246212	     -9.76993193	     29.86262866	      0.52120119	    -29.35074047	      1.29467343	      0.00000000	      0.00000000	    -57.73445713	      0.87380512	     12.51838497	     47.85899580	    -17.45329833	     22.15893086	     82.83220485	     47.84269993	      0.00000000	      0.00000000	     46.29121522	    -15.63433658	     19.31685111	     65.44466176	     47.95877787	      0.00000000	      0.00000000
      2.55500000	    -30.58055318	     -6.46887715	    -11.65026911	      0.40471435	      1.23183479	     -0.28264470	      0.00000000	      0.50000000	      0.00000000	      0.25000000	     70.62525458	     12.05148573	      2.29702386	     76.86645052	      1.34157265	      8.67894605	    -15.44903798	      0.00000000	      0.00000000	     30.75043847	    -17.38206821	     -9.45178745	     31.12861523	      0.54329683	    -28.83730496	      0.97192741	      0.00000000	      0.00000000	    -57.85743938	      0.73363939	     12.65024648	     47.31840565	    -17.64251218	     21.21639400	     83.72050255	     47.85423868	      0.00000000	      0.00000000	     47.13831828	    -15.79157502	     21.01352688	     64.87832644	     48.09924264	      0.00000000	      0.00000000
